<svg version="1.1" id="Layer_1" xmlns:x="ns_extend;" xmlns:i="ns_ai;" xmlns:graph="ns_graphs;" xmlns="http://www.w3.org/2000/svg" xmlns:xlink="http://www.w3.org/1999/xlink" x="0px" y="0px" viewBox="0 0 65.3 78" style="enable-background:new 0 0 65.3 78;" xml:space="preserve">
 <style type="text/css">
  .st0{fill:#E4002B;}
 </style>
 <metadata>
  <sfw xmlns="ns_sfw;">
   <slices>
   </slices>
   <sliceSourceBounds bottomLeftOrigin="true" height="78" width="65.3" x="-112.9" y="-20">
   </sliceSourceBounds>
  </sfw>
 </metadata>
 <g>
  <g>
   <path class="st0" d="M57.9,58.3c-23.8-6.4-34.3-16.2-34.3-16.2s10.3,17.2,26.3,24.2l0.8,0.4h0.2c0.2,0.2,0.6,0.2,0.8,0.4h0.4
			c0.4,0,0.8-0.2,1-0.4l5.3-6.4c0.2-0.4,0.4-0.8,0.2-1.2C58.7,58.7,58.3,58.3,57.9,58.3z">
   </path>
   <path class="st0" d="M64.2,33c-0.4,0-2.3-0.2-3.9-0.2c-9.6,0-35.3,4.7-35.3,4.7l39,5.5c0,0,0.2,0,0.2-0.2c0.4-0.2,0.4-0.6,0.4-0.8
			c0.2-1.2,0.4-5.1,0.6-7.4C65.5,33.9,64.9,33.3,64.2,33z">
   </path>
   <path class="st0" d="M25,31.6c12.1-11.3,33-15.2,35.3-15.6c0.4,0,0.6-0.4,0.8-0.6c0.2-0.4,0.2-0.8,0-1c-0.8-1.2-3.7-5.1-4.7-6.6
			c-0.4-0.4-0.8-0.6-1.2-0.4H55l-1.2,0.4C38.2,13.5,28.9,25.9,25,31.6z">
   </path>
   <path class="st0" d="M18.9,31.6c0.2-1.4,0.8-4.5,1.2-5.5C24.2,14.2,33,5.3,36.7,2.1c0.4-0.4,0.4-0.8,0.4-1.4
			c-0.4-0.4-1-0.6-1.4-0.6l-7.6,0.6c-0.2,0-0.6,0-0.8,0.2c-0.2,0-0.2,0.2-0.4,0.2l-1.2,1.6c-0.4,0.4-0.8,1-1,1.4l-0.2,0.2l-0.6,1
			C21.8,8.8,17.9,18.7,18.9,31.6z">
   </path>
   <path class="st0" d="M15,32c0,0-3.9-7.2-4.3-16.4v-1c0-0.6-0.4-1-1-1.2c-0.6-0.2-1,0-1.4,0.6c-1.6,2.5-3.1,6.8-3.3,7
			c-0.2,0.4-0.2,0.6,0,1C7,26.5,15,32,15,32z">
   </path>
   <path class="st0" d="M3.9,50.5c-0.2,0.2-0.2,0.6-0.2,1c0.2,0.8,0.8,4.9,1.8,7.4c0.4,1,1.2,0.8,1.4,0.8c0.8,0,1-1.2,1.4-1.8
			c1.8-7,6.6-15.8,6.6-15.8S7.2,46.2,3.9,50.5z">
   </path>
   <path class="st0" d="M34.9,72l-0.6-0.6C20.5,57.9,18.9,42.7,18.9,42.7s-3.1,22.2,8.4,35.1c0,0,0.2,0.2,0.4,0.2h0.4l8.8-1.4h0.2
			l0.6-0.6c0.2-0.4,0-1-0.2-1.4C36.9,74.1,36.1,73.3,34.9,72z">
   </path>
   <path class="st0" d="M14,36.5l-3.9-0.8c-0.8-0.2-5.1-1.2-7-2.9l-0.4-0.4C2.3,32,1.8,32,1.4,32c-0.4,0.2-0.8,0.4-0.8,1
			C0.4,34.3,0,38.4,0,39.2c0,0.2,0.2,0.4,0.6,0.8L1,40.2h0.2c1.8-0.2,7-1.8,9.2-2.5C10.5,37.8,14,36.5,14,36.5z">
   </path>
  </g>
 </g>
</svg>